<svg xmlns="http://www.w3.org/2000/svg" xmlns:xlink="http://www.w3.org/1999/xlink" width="1440" height="560" viewBox="0 0 1440 560"><defs><linearGradient id="linear-gradient" x1="1007.92" y1="-215.86" x2="472.57" y2="709.85" gradientTransform="matrix(1, 0, 0, -1, 0, 562)" gradientUnits="userSpaceOnUse"><stop offset="0" stop-color="#f7c6c7"/><stop offset="0.22" stop-color="#f4afb5"/><stop offset="0.38" stop-color="#f3a4ac"/><stop offset="0.58" stop-color="#a87383"/><stop offset="1" stop-color="#060929"/></linearGradient><clipPath id="clip-path"><rect x="-434" y="5.5" width="414" height="736" style="fill:none"/></clipPath><linearGradient id="linear-gradient-2" x1="-162.24" y1="-221.32" x2="-697.59" y2="704.39" xlink:href="#linear-gradient"/><clipPath id="clip-path-2"><rect x="-141.8" y="337.5" width="211.9" height="116.28" style="fill:none"/></clipPath><linearGradient id="linear-gradient-3" x1="-54.56" y1="147.87" x2="-54.56" y2="283.36" gradientTransform="matrix(1, 0, 0, -1, 0, 562)" gradientUnits="userSpaceOnUse"><stop offset="0" stop-color="#fce4cd"/><stop offset="0.46" stop-color="#f7ba93"/><stop offset="1" stop-color="#001d34"/></linearGradient><linearGradient id="linear-gradient-4" x1="-423.88" y1="412.12" x2="-503.49" y2="181.25" gradientTransform="matrix(1, 0, 0, -1, 0, 562)" gradientUnits="userSpaceOnUse"><stop offset="0" stop-color="#f8c7c8" stop-opacity="0.7"/><stop offset="0.01" stop-color="#f8c7c8" stop-opacity="0.69"/><stop offset="0.07" stop-color="#f8c7c8" stop-opacity="0.53"/><stop offset="0.15" stop-color="#f8c7c8" stop-opacity="0.39"/><stop offset="0.23" stop-color="#f8c7c8" stop-opacity="0.27"/><stop offset="0.32" stop-color="#f8c7c8" stop-opacity="0.17"/><stop offset="0.42" stop-color="#f8c7c8" stop-opacity="0.09"/><stop offset="0.54" stop-color="#f8c7c8" stop-opacity="0.04"/><stop offset="0.69" stop-color="#f8c7c8" stop-opacity="0.01"/><stop offset="1" stop-color="#f8c7c8" stop-opacity="0"/></linearGradient></defs><title>mobiiliapp_visual-01</title><g id="Layer_1" data-name="Layer 1"><g id="Layer_4" data-name="Layer 4"><rect width="1440" height="560" style="fill:url(#linear-gradient)"/></g></g><g id="Layer_3" data-name="Layer 3"><g style="clip-path:url(#clip-path)"><g id="Layer_4-2" data-name="Layer 4"><rect x="-1170.2" y="5.5" width="1440" height="560" style="fill:url(#linear-gradient-2)"/><g style="clip-path:url(#clip-path-2)"><path d="M31.8,394.6c-9.5-2-14.9-1.2-14.9-1.2s-4.3-11.8-20.6-12.8-20.8,5.1-20.8,5.1-6.9-16-27.9-16c-10.7,0-18.7,2.5-24.6,6.2a26.8,26.8,0,0,0-9.8-1.5c-14.5,0-19.2,13.7-19.2,13.7s-3.2-5.3-14.4-4.4a16.1,16.1,0,0,0-14.2,11s-3.7-.7-10.3,1a14.6,14.6,0,0,0-8.6,6.8H44.3A19.4,19.4,0,0,0,31.8,394.6Z" style="opacity:0.449999988079071;isolation:isolate;fill:url(#linear-gradient-3)"/></g></g><polygon points="288.8 412.8 285.2 560.8 -1194.4 232 -1228.1 14.7 288.8 412.8" style="fill:url(#linear-gradient-4)"/></g></g></svg>