<?xml version="1.0" encoding="UTF-8"?>
<svg width="100px" height="100px" viewBox="0 0 100 100" version="1.1" xmlns="http://www.w3.org/2000/svg" xmlns:xlink="http://www.w3.org/1999/xlink">
    <!-- Generator: Sketch 52.5 (67469) - http://www.bohemiancoding.com/sketch -->
    <title>2</title>
    <desc>Created with Sketch.</desc>
    <g id="Page-1" stroke="none" stroke-width="1" fill="none" fill-rule="evenodd">
        <g id="numbers-copy" transform="translate(-550.000000, -218.000000)" fill="#444B57">
            <g id="2" transform="translate(550.000000, 218.000000)">
                <g id="Oval" fill-rule="nonzero">
                    <path d="M50,99 L50,99 C77.0619527,99 99,77.0619527 99,50 C99,22.9380473 77.0619527,1 50,1 C22.9380473,1 1,22.9380473 1,50 C1,77.0619527 22.9380473,99 50,99 L50,99 Z M50,100 L50,100 C22.3857625,100 0,77.6142375 0,50 C0,22.3857625 22.3857625,0 50,0 C77.6142375,0 100,22.3857625 100,50 C100,77.6142375 77.6142375,100 50,100 L50,100 Z" id="Oval-1"></path>
                </g>
                <path d="M43.38,60 C43.4400003,59.0399952 43.6599981,58.1750039 44.04,57.405 C44.4200019,56.6349961 44.904997,55.9350032 45.495,55.305 C46.085003,54.6749968 46.7449964,54.0900027 47.475,53.55 C48.2050037,53.0099973 48.9499962,52.4900025 49.71,51.99 C50.4500037,51.4899975 51.1799964,50.9850026 51.9,50.475 C52.6200036,49.9649974 53.2649971,49.4200029 53.835,48.84 C54.4050029,48.2599971 54.8599983,47.6250035 55.2,46.935 C55.5400017,46.2449965 55.71,45.4600044 55.71,44.58 C55.71,43.8799965 55.5700014,43.2450029 55.29,42.675 C55.0099986,42.1049972 54.6350024,41.6150021 54.165,41.205 C53.6949976,40.794998 53.155003,40.4800011 52.545,40.26 C51.9349969,40.0399989 51.2900034,39.93 50.61,39.93 C49.6699953,39.93 48.8500035,40.0949983 48.15,40.425 C47.4499965,40.7550016 46.8700023,41.2049972 46.41,41.775 C45.9499977,42.3450029 45.6050011,43.0149962 45.375,43.785 C45.1449989,44.5550039 45.03,45.3899955 45.03,46.29 L43.89,46.29 C44.0100006,43.7699874 44.6149945,41.915006 45.705,40.725 C46.7950054,39.5349941 48.3699897,38.94 50.43,38.94 C51.3100044,38.94 52.1399961,39.0549989 52.92,39.285 C53.7000039,39.5150012 54.3799971,39.8649976 54.96,40.335 C55.5400029,40.8050024 55.9999983,41.3949965 56.34,42.105 C56.6800017,42.8150036 56.85,43.6499952 56.85,44.61 C56.85,45.8300061 56.5650028,46.9049954 55.995,47.835 C55.4249971,48.7650047 54.7050043,49.6099962 53.835,50.37 C52.9649956,51.1300038 52.025005,51.8399967 51.015,52.5 C50.0049949,53.1600033 49.0550044,53.8149967 48.165,54.465 C47.2749955,55.1150033 46.5150031,55.7949964 45.885,56.505 C45.2549968,57.2150035 44.9000004,57.9999957 44.82,58.86 L57.18,58.86 L57.18,60 L43.38,60 Z"></path>
            </g>
        </g>
    </g>
</svg>