<?xml version="1.0" encoding="UTF-8"?>
<svg width="100px" height="100px" viewBox="0 0 100 100" version="1.1" xmlns="http://www.w3.org/2000/svg" xmlns:xlink="http://www.w3.org/1999/xlink">
    <!-- Generator: Sketch 52.5 (67469) - http://www.bohemiancoding.com/sketch -->
    <title>3</title>
    <desc>Created with Sketch.</desc>
    <g id="Page-1" stroke="none" stroke-width="1" fill="none" fill-rule="evenodd">
        <g id="numbers-copy" transform="translate(-550.000000, -335.000000)" fill="#444B57">
            <g id="3" transform="translate(550.000000, 335.000000)">
                <g id="Oval" fill-rule="nonzero">
                    <path d="M50,99 L50,99 C77.0619527,99 99,77.0619527 99,50 C99,22.9380473 77.0619527,1 50,1 C22.9380473,1 1,22.9380473 1,50 C1,77.0619527 22.9380473,99 50,99 L50,99 Z M50,100 L50,100 C22.3857625,100 0,77.6142375 0,50 C0,22.3857625 22.3857625,0 50,0 C77.6142375,0 100,22.3857625 100,50 C100,77.6142375 77.6142375,100 50,100 L50,100 Z" id="Oval-1"></path>
                </g>
                <path d="M44.22,53.16 C44.1799998,54.1200048 44.2949986,54.9849962 44.565,55.755 C44.8350013,56.5250038 45.2299974,57.1749973 45.75,57.705 C46.2700026,58.2350026 46.9099962,58.6449985 47.67,58.935 C48.4300038,59.2250015 49.2899952,59.37 50.25,59.37 C51.0100038,59.37 51.7499964,59.2600011 52.47,59.04 C53.1900036,58.8199989 53.8249972,58.4950021 54.375,58.065 C54.9250028,57.6349978 55.3649984,57.1000032 55.695,56.46 C56.0250017,55.8199968 56.19,55.0900041 56.19,54.27 C56.19,53.2899951 55.990002,52.4750033 55.59,51.825 C55.189998,51.1749967 54.6600033,50.6700018 54,50.31 C53.3399967,49.9499982 52.5950042,49.7100006 51.765,49.59 C50.9349958,49.4699994 50.0900043,49.4399997 49.23,49.5 L49.23,48.51 C49.9900038,48.5500002 50.7549961,48.5150005 51.525,48.405 C52.2950039,48.2949995 52.9899969,48.0750017 53.61,47.745 C54.2300031,47.4149983 54.7349981,46.9600029 55.125,46.38 C55.5150019,45.7999971 55.71,45.0600045 55.71,44.16 C55.71,43.4399964 55.5450017,42.8100027 55.215,42.27 C54.8849983,41.7299973 54.4550026,41.2900017 53.925,40.95 C53.3949973,40.6099983 52.8050032,40.3550008 52.155,40.185 C51.5049968,40.0149992 50.8700031,39.93 50.25,39.93 C49.3499955,39.93 48.5600034,40.0799985 47.88,40.38 C47.1999966,40.6800015 46.6350022,41.0899974 46.185,41.61 C45.7349977,42.1300026 45.3900012,42.7499964 45.15,43.47 C44.9099988,44.1900036 44.7700002,44.9799957 44.73,45.84 L43.59,45.84 C43.59,44.8199949 43.7449984,43.8850043 44.055,43.035 C44.3650016,42.1849957 44.8099971,41.460003 45.39,40.86 C45.9700029,40.259997 46.6699959,39.7900017 47.49,39.45 C48.3100041,39.1099983 49.2299949,38.94 50.25,38.94 C51.0900042,38.94 51.9049961,39.039999 52.695,39.24 C53.4850039,39.440001 54.1849969,39.7499979 54.795,40.17 C55.4050031,40.5900021 55.8999981,41.1299967 56.28,41.79 C56.6600019,42.4500033 56.85,43.2399954 56.85,44.16 C56.85,44.7800031 56.7550009,45.3599973 56.565,45.9 C56.374999,46.4400027 56.1000018,46.9199979 55.74,47.34 C55.3799982,47.7600021 54.9500025,48.1049986 54.45,48.375 C53.9499975,48.6450014 53.400003,48.8199996 52.8,48.9 L52.8,48.96 C53.5000035,49.0400004 54.1299972,49.2299985 54.69,49.53 C55.2500028,49.8300015 55.724998,50.2149977 56.115,50.685 C56.505002,51.1550024 56.8049989,51.694997 57.015,52.305 C57.2250011,52.915003 57.33,53.5699965 57.33,54.27 C57.33,55.2900051 57.1400019,56.1799962 56.76,56.94 C56.3799981,57.7000038 55.8700032,58.3349975 55.23,58.845 C54.5899968,59.3550026 53.8400043,59.7349988 52.98,59.985 C52.1199957,60.2350012 51.2100048,60.36 50.25,60.36 C49.1099943,60.36 48.0850046,60.2000016 47.175,59.88 C46.2649955,59.5599984 45.4950032,59.0950031 44.865,58.485 C44.2349969,57.8749969 43.7650016,57.1250044 43.455,56.235 C43.1449985,55.3449956 43.0199997,54.3200058 43.08,53.16 L44.22,53.16 Z"></path>
            </g>
        </g>
    </g>
</svg>