<?xml version="1.0" encoding="UTF-8"?>
<svg width="100px" height="100px" viewBox="0 0 100 100" version="1.1" xmlns="http://www.w3.org/2000/svg" xmlns:xlink="http://www.w3.org/1999/xlink">
    <!-- Generator: Sketch 52.5 (67469) - http://www.bohemiancoding.com/sketch -->
    <title>4</title>
    <desc>Created with Sketch.</desc>
    <g id="Page-1" stroke="none" stroke-width="1" fill="none" fill-rule="evenodd">
        <g id="numbers-copy" transform="translate(-550.000000, -453.000000)" fill="#444B57">
            <g id="4" transform="translate(550.000000, 453.000000)">
                <g id="Oval" fill-rule="nonzero">
                    <path d="M50,99 L50,99 C77.0619527,99 99,77.0619527 99,50 C99,22.9380473 77.0619527,1 50,1 C22.9380473,1 1,22.9380473 1,50 C1,77.0619527 22.9380473,99 50,99 L50,99 Z M50,100 L50,100 C22.3857625,100 0,77.6142375 0,50 C0,22.3857625 22.3857625,0 50,0 C77.6142375,0 100,22.3857625 100,50 C100,77.6142375 77.6142375,100 50,100 L50,100 Z" id="Oval-1"></path>
                </g>
                <path d="M42.87,53.58 L52.95,39.3 L54.09,39.3 L54.09,53.73 L57.57,53.73 L57.57,54.72 L54.09,54.72 L54.09,60 L52.95,60 L52.95,54.72 L42.87,54.72 L42.87,53.58 Z M52.95,53.73 L52.95,40.86 L52.89,40.86 L44.01,53.73 L52.95,53.73 Z"></path>
            </g>
        </g>
    </g>
</svg>