<?xml version="1.0" encoding="UTF-8"?>
<svg width="100px" height="100px" viewBox="0 0 100 100" version="1.1" xmlns="http://www.w3.org/2000/svg" xmlns:xlink="http://www.w3.org/1999/xlink">
    <!-- Generator: Sketch 52.5 (67469) - http://www.bohemiancoding.com/sketch -->
    <title>5</title>
    <desc>Created with Sketch.</desc>
    <g id="Page-1" stroke="none" stroke-width="1" fill="none" fill-rule="evenodd">
        <g id="numbers-copy" transform="translate(-550.000000, -571.000000)" fill="#444B57">
            <g id="5" transform="translate(550.000000, 571.000000)">
                <g id="Oval" fill-rule="nonzero">
                    <path d="M50,99 L50,99 C77.0619527,99 99,77.0619527 99,50 C99,22.9380473 77.0619527,1 50,1 C22.9380473,1 1,22.9380473 1,50 C1,77.0619527 22.9380473,99 50,99 L50,99 Z M50,100 L50,100 C22.3857625,100 0,77.6142375 0,50 C0,22.3857625 22.3857625,0 50,0 C77.6142375,0 100,22.3857625 100,50 C100,77.6142375 77.6142375,100 50,100 L50,100 Z" id="Oval-1"></path>
                </g>
                <path d="M44.25,53.67 C44.2299999,54.5300043 44.3749984,55.3099965 44.685,56.01 C44.9950015,56.7100035 45.4199973,57.3099975 45.96,57.81 C46.5000027,58.3100025 47.1349964,58.6949987 47.865,58.965 C48.5950037,59.2350014 49.3799958,59.37 50.22,59.37 C51.1000044,59.37 51.8999964,59.2050016 52.62,58.875 C53.3400036,58.5449984 53.9599974,58.1000028 54.48,57.54 C55.0000026,56.9799972 55.3999986,56.3200038 55.68,55.56 C55.9600014,54.7999962 56.1,54.0000042 56.1,53.16 C56.1,52.3199958 55.9550014,51.5300037 55.665,50.79 C55.3749986,50.0499963 54.9650027,49.4100027 54.435,48.87 C53.9049974,48.3299973 53.2800036,47.9000016 52.56,47.58 C51.8399964,47.2599984 51.0600042,47.1 50.22,47.1 C49.019994,47.1 48.0000042,47.3449976 47.16,47.835 C46.3199958,48.3250024 45.5700033,49.0499952 44.91,50.01 L43.74,50.01 L45.9,39.3 L56.37,39.3 L56.37,40.29 L46.8,40.29 L45.03,48.54 L45.09,48.6 C45.690003,47.7599958 46.4349955,47.135002 47.325,46.725 C48.2150045,46.3149979 49.1799948,46.11 50.22,46.11 C51.2400051,46.11 52.1799957,46.2849983 53.04,46.635 C53.9000043,46.9850018 54.6399969,47.4699969 55.26,48.09 C55.8800031,48.7100031 56.3649982,49.4549957 56.715,50.325 C57.0650018,51.1950044 57.24,52.1399949 57.24,53.16 C57.24,54.1800051 57.0700017,55.1299956 56.73,56.01 C56.3899983,56.8900044 55.9100031,57.6549968 55.29,58.305 C54.6699969,58.9550033 53.9300043,59.4599982 53.07,59.82 C52.2099957,60.1800018 51.2600052,60.36 50.22,60.36 C49.219995,60.36 48.2800044,60.2050015 47.4,59.895 C46.5199956,59.5849985 45.7500033,59.1450028 45.09,58.575 C44.4299967,58.0049972 43.9200018,57.3050042 43.56,56.475 C43.1999982,55.6449959 43.0499997,54.7100052 43.11,53.67 L44.25,53.67 Z"></path>
            </g>
        </g>
    </g>
</svg>